<?xml version="1.0" encoding="UTF-8"?>
<svg version="1.1" xmlns="http://www.w3.org/2000/svg" width="512" height="512">
<path d="M0 0 C0.98636476 -0.00445784 1.97272951 -0.00891569 2.98898411 -0.01350862 C4.61093646 -0.01323207 4.61093646 -0.01323207 6.26565552 -0.01294994 C7.41625175 -0.01662663 8.56684797 -0.02030332 9.75231075 -0.02409142 C12.94675783 -0.03320905 16.14117471 -0.03782595 19.33563256 -0.04048073 C22.78095817 -0.04438807 26.22626895 -0.05396623 29.67158508 -0.0626936 C37.99336713 -0.0824477 46.31515038 -0.09252369 54.63695002 -0.10142139 C58.55842321 -0.10580673 62.47989506 -0.11117297 66.40136719 -0.11641026 C79.44232401 -0.13342283 92.48328 -0.14791557 105.52424622 -0.155159 C108.90777589 -0.15706881 112.29130556 -0.15898916 115.67483521 -0.16094494 C116.93623658 -0.16167055 116.93623658 -0.16167055 118.22312081 -0.16241082 C131.83653985 -0.17070577 145.44987087 -0.19603349 159.0632515 -0.22852562 C173.04847131 -0.26163228 187.03364645 -0.27961108 201.01890564 -0.28280324 C208.8675482 -0.28496519 216.71606246 -0.29366741 224.56466675 -0.31926441 C231.25105376 -0.34102091 237.93728133 -0.34899768 244.62369972 -0.33929763 C248.0318373 -0.33476692 251.43964622 -0.33656646 254.84773827 -0.35605907 C258.55266712 -0.37379814 262.25677034 -0.3666606 265.96170044 -0.35352612 C267.02515623 -0.36449536 268.08861202 -0.37546461 269.18429375 -0.38676625 C280.90646611 -0.28690125 290.54346484 3.0849765 299.12161255 11.13422108 C299.75969849 11.73105701 300.39778442 12.32789295 301.0552063 12.94281483 C308.32986735 20.4677868 312.23391037 30.70497009 312.25583363 41.13286304 C312.26029147 42.12060215 312.26474931 43.10834126 312.26934224 44.12601185 C312.2690657 45.74257175 312.2690657 45.74257175 312.26878357 47.39178944 C312.27246026 48.54253452 312.27613695 49.69327961 312.27992505 50.87889576 C312.28903236 54.06915289 312.2936573 57.25937978 312.29631436 60.44964767 C312.30022584 63.89224813 312.30980364 67.33483381 312.31852722 70.77742481 C312.33826877 79.08989567 312.34835533 87.40236771 312.35725501 95.71485615 C312.36164207 99.63320971 312.36700783 103.55156193 312.37224388 107.46991444 C312.38925455 120.50233142 312.40374724 133.53474758 312.41099262 146.56717396 C312.41290239 149.94743316 312.41482274 153.32769236 312.41677856 156.70795155 C312.4172623 157.54805798 312.41774604 158.38816442 312.41824444 159.25372863 C312.42653926 172.85347552 312.45186762 186.45313429 312.48435924 200.05284274 C312.51747437 214.02792892 312.53544544 228.0029704 312.53863686 241.97809601 C312.54079794 249.81948977 312.54948736 257.66075506 312.57509804 265.50211048 C312.59686606 272.18222309 312.60482565 278.86217602 312.59513126 285.54232007 C312.59060388 288.94661198 312.59458789 292.35030929 312.6118927 295.75459957 C312.6296541 299.45693519 312.62248336 303.15844642 312.60935974 306.86078358 C312.62581361 308.45057482 312.62581361 308.45057482 312.64259988 310.07248306 C312.53526148 322.68907596 308.83298426 334.16136735 300.0161438 343.32172108 C289.95665577 352.74058767 280.14452929 355.44071016 266.61680603 355.40164661 C264.88706678 355.40844328 264.88706678 355.40844328 263.1223833 355.41537726 C259.93467715 355.42582297 256.74711343 355.42735129 253.55939567 355.42498851 C250.11615958 355.42457937 246.67295679 355.43562879 243.22973633 355.44510365 C236.48822408 355.46169448 229.74674682 355.46721235 223.00521586 355.4683284 C217.52254759 355.46927991 212.03989082 355.47339533 206.55722618 355.47972965 C190.9988448 355.49733783 175.44049097 355.50656934 159.88209955 355.5050687 C159.0438903 355.50498879 158.20568106 355.50490888 157.34207153 355.50482655 C156.50283379 355.50474478 155.66359604 355.50466302 154.79892685 355.50457878 C141.2050926 355.50376629 127.61136926 355.52289578 114.01756708 355.55110328 C100.04580631 355.57986527 86.07409956 355.59364171 72.10230845 355.59191573 C64.26377883 355.59125291 56.42536545 355.59669754 48.58686256 355.61827183 C41.91151874 355.63652745 35.23634382 355.64079527 28.56098578 355.62725298 C25.15883614 355.62074477 21.75727311 355.6227217 18.35511208 355.63795948 C14.65690076 355.65344659 10.9595311 355.64407946 7.26133728 355.6286974 C5.66922313 355.64412808 5.66922313 355.64412808 4.04494506 355.65987051 C-8.38673282 355.5461405 -18.05817179 351.66123121 -26.9682312 343.13422108 C-34.49307676 335.28708231 -38.9897352 326.06184149 -39.01260853 315.10434437 C-39.01706637 314.10963847 -39.02152422 313.11493258 -39.02611715 312.09008408 C-39.02593278 311.00459558 -39.02574842 309.91910707 -39.02555847 308.80072498 C-39.02923516 307.64181279 -39.03291185 306.4829006 -39.03669995 305.28886986 C-39.04580762 302.07580963 -39.05043228 298.86277942 -39.05308926 295.64970851 C-39.0570006 292.182568 -39.06657841 288.71544216 -39.07530212 285.24831104 C-39.09504407 276.87651444 -39.10513027 268.50471667 -39.11402991 260.13290262 C-39.1184169 256.18665552 -39.12378268 252.24040975 -39.12901878 248.2941637 C-39.14602948 235.16910042 -39.1605222 222.04403795 -39.16776752 208.91896534 C-39.1696773 205.51464302 -39.17159765 202.11032071 -39.17355347 198.70599842 C-39.17403721 197.85991075 -39.17452095 197.01382309 -39.17501935 196.1420964 C-39.18331426 182.44535191 -39.20864278 168.74869491 -39.24113414 155.0519886 C-39.27424848 140.97746134 -39.29222027 126.90297847 -39.29541177 112.82841206 C-39.29757291 104.93112734 -39.30626339 97.03397017 -39.33187294 89.13672352 C-39.35363988 82.40903407 -39.36160108 75.68150316 -39.35190616 68.9537825 C-39.34737858 65.52526212 -39.3491566 62.09706843 -39.3686676 58.66859341 C-39.38642695 54.9399853 -39.37925924 51.21219592 -39.36613464 47.48358631 C-39.38258851 45.88212222 -39.38258851 45.88212222 -39.39937478 44.24830532 C-39.28432325 30.63169822 -35.0997934 20.65092615 -25.77682495 10.94672108 C-18.63062924 4.07829269 -9.99122203 0.02098248 0 0 Z M-20.87838745 22.13422108 C-27.71345785 30.96937568 -28.16947888 39.27367765 -28.10543823 50.13788319 C-28.1056793 51.45704762 -28.10592037 52.77621206 -28.10616875 54.13535118 C-28.10661835 57.68824551 -28.09506709 61.2410038 -28.08094788 64.79386616 C-28.06951751 68.13359157 -28.06901944 71.47331145 -28.06759644 74.81305408 C-28.05712177 84.56596094 -28.02919929 94.31884275 -28.00338745 104.07172108 C-27.96213745 125.87234608 -27.92088745 147.67297108 -27.87838745 170.13422108 C24.59161255 170.13422108 77.06161255 170.13422108 131.12161255 170.13422108 C131.12161255 117.66422108 131.12161255 65.19422108 131.12161255 11.13422108 C98.26598755 11.01047108 98.26598755 11.01047108 64.74661255 10.88422108 C57.8419104 10.84780506 50.93720825 10.81138905 43.82327271 10.77386951 C37.60969941 10.76048807 37.60969941 10.76048807 31.39611816 10.75244617 C28.63792778 10.74632132 25.88048144 10.7338036 23.12243652 10.71191883 C19.59472449 10.68430148 16.06745888 10.67628932 12.53964877 10.68193197 C10.64722551 10.68020143 8.75485061 10.65884096 6.86255836 10.63650608 C-4.46695143 10.69131765 -13.15508337 13.67126872 -20.87838745 22.13422108 Z M142.12161255 11.13422108 C142.12161255 63.60422108 142.12161255 116.07422108 142.12161255 170.13422108 C194.59161255 170.13422108 247.06161255 170.13422108 301.12161255 170.13422108 C301.18348755 148.56047108 301.24536255 126.98672108 301.30911255 104.75922108 C301.33642456 97.95893299 301.36373657 91.15864491 301.39187622 84.15228748 C301.4019124 78.03185213 301.4019124 78.03185213 301.40794373 71.91141224 C301.41253669 69.19501557 301.42192414 66.47904413 301.43833923 63.7627306 C301.46293609 59.63729593 301.46332784 55.51217032 301.46218872 51.38666248 C301.47298305 50.18601973 301.48377737 48.98537697 301.4948988 47.7483511 C301.45534625 37.0084394 299.70399848 28.09315891 292.12161255 20.13422108 C283.16336113 11.95494804 274.70629171 10.68985626 262.91262817 10.79364491 C261.57000505 10.79456531 260.22738047 10.79416104 258.884758 10.79254913 C255.30906334 10.7918755 251.73367361 10.80918541 248.15805054 10.83038044 C244.7953274 10.84754284 241.43261642 10.848274 238.06985474 10.8504076 C228.25373407 10.86611136 218.43766939 10.90799513 208.62161255 10.94672108 C186.67661255 11.00859608 164.73161255 11.07047108 142.12161255 11.13422108 Z M-27.87838745 181.13422108 C-27.96088745 203.51234608 -28.04338745 225.89047108 -28.12838745 248.94672108 C-28.16480347 255.99894032 -28.20121948 263.05115955 -28.23873901 270.31708241 C-28.25212109 276.66768734 -28.25212109 276.66768734 -28.26016235 283.01830006 C-28.263872 285.83544623 -28.27879314 288.65228743 -28.3006897 291.46934986 C-28.32833323 295.07409597 -28.33631444 298.67840509 -28.33067656 302.28324735 C-28.33240477 304.21509774 -28.35375139 306.14690096 -28.37610245 308.07862282 C-28.32028738 319.88467251 -25.49433434 328.48350602 -17.2572937 337.03265858 C-11.36204471 342.24061253 -5.07080955 344.26174207 2.68978882 344.25447559 C3.82043385 344.25585309 4.95107887 344.25723059 6.11598587 344.25864983 C7.356954 344.25505172 8.59792213 344.25145361 9.87649536 344.24774647 C11.21863171 344.24744006 12.56076823 344.24757376 13.90290451 344.24811172 C17.49530131 344.24833738 21.08766477 344.24254377 24.68005371 344.23550129 C28.05168567 344.2298041 31.42331619 344.22953804 34.79495239 344.22882557 C44.65384352 344.22357937 54.51272846 344.2096182 64.37161255 344.19672108 C86.39911255 344.17609608 108.42661255 344.15547108 131.12161255 344.13422108 C131.12161255 290.34422108 131.12161255 236.55422108 131.12161255 181.13422108 C78.65161255 181.13422108 26.18161255 181.13422108 -27.87838745 181.13422108 Z M142.12161255 181.13422108 C142.12161255 234.92422108 142.12161255 288.71422108 142.12161255 344.13422108 C174.97723755 344.25797108 174.97723755 344.25797108 208.49661255 344.38422108 C215.4013147 344.42063709 222.30601685 344.45705311 229.41995239 344.49457264 C235.63352568 344.50795408 235.63352568 344.50795408 241.84710693 344.51599598 C244.60529732 344.52212083 247.36274366 344.53463855 250.12078857 344.55652332 C253.64850061 344.58414067 257.17576622 344.59215283 260.70357633 344.58651018 C262.59599958 344.58824072 264.48837449 344.6096012 266.38066673 344.63193607 C277.19812652 344.57960177 285.23628341 341.90451062 293.1411438 334.41937733 C299.00100151 327.65800305 301.2500079 320.18638167 301.24186707 311.36986256 C301.24324456 310.22104697 301.24462206 309.07223139 301.2460413 307.88860321 C301.24244319 306.63249646 301.23884508 305.37638971 301.23513794 304.08221912 C301.23483144 302.7199364 301.23496538 301.35765352 301.2355032 299.99537086 C301.23572859 296.35330908 301.2299404 292.71128028 301.22289276 289.06922626 C301.21719013 285.64936185 301.21692922 282.22950537 301.21621704 278.80963612 C301.21097353 268.81366008 301.19701234 258.81769016 301.18411255 248.82172108 C301.16348755 226.48484608 301.14286255 204.14797108 301.12161255 181.13422108 C248.65161255 181.13422108 196.18161255 181.13422108 142.12161255 181.13422108 Z " fill="#000000" transform="translate(111.87838745117188,77.86577892303467)"/>
<path d="M0 0 C1.40190278 -0.00202529 2.80380453 -0.0049405 4.20570374 -0.00869751 C7.13325098 -0.01310098 10.06052217 -0.00675523 12.98803711 0.00732422 C16.71784214 0.02439938 20.44699855 0.01457346 24.17677975 -0.00339317 C27.06894201 -0.01429855 29.96095369 -0.01075372 32.8531208 -0.0030098 C34.22727093 -0.00102555 35.60143527 -0.00340376 36.97556877 -0.01044846 C46.28272535 -0.04769777 53.90484043 0.42804622 61.84765625 5.5234375 C69.34925289 13.54840135 69.11863301 22.6967898 69.03125 33.125 C69.03140527 34.64236521 69.03289893 36.1597308 69.03565979 37.67709351 C69.0370375 40.84252661 69.02458933 44.00750313 69.00170898 47.17285156 C68.97327701 51.21559342 68.97608312 55.25758065 68.9887991 59.3003788 C68.99577562 62.428379 68.98794541 65.55620685 68.97554207 68.68418503 C68.97105013 70.17441521 68.97067087 71.66466403 68.97460747 73.15489578 C68.97754058 75.24117839 68.96091702 77.32644412 68.93920898 79.41259766 C68.933806 80.59568512 68.92840302 81.77877258 68.9228363 82.99771118 C68.19704797 89.3643206 65.3972399 95.15854 60.53515625 99.3984375 C53.0607109 104.32907019 44.96400562 103.98613744 36.31640625 103.9296875 C34.8486709 103.93238828 33.3809373 103.93627555 31.91320801 103.94128418 C28.85032976 103.94715182 25.78792094 103.9387058 22.72509766 103.91992188 C18.82140984 103.89713315 14.91882243 103.91027113 11.01517487 103.93421173 C7.98830037 103.94874456 4.96168189 103.9440298 1.93479919 103.93370056 C0.49645351 103.93105386 -0.94191629 103.9342297 -2.38023376 103.94361877 C-11.22245142 103.98868813 -19.55827802 103.994035 -26.33312988 97.64855957 C-31.23757524 92.37403938 -32.71055027 87.64855148 -32.75537109 80.44018555 C-32.76208832 79.75980225 -32.76880554 79.07941895 -32.77572632 78.37841797 C-32.79465523 76.13892218 -32.79862805 73.89972697 -32.80078125 71.66015625 C-32.80721338 70.0946287 -32.81394205 68.52910234 -32.82095337 66.96357727 C-32.83291382 63.68443009 -32.83663553 60.40538815 -32.83544922 57.1262207 C-32.83524625 52.93992632 -32.86253075 48.75431246 -32.89699364 44.56817913 C-32.91931647 41.33465015 -32.9232851 38.10128344 -32.92222977 34.86768532 C-32.92457831 33.32522045 -32.93335951 31.78275059 -32.9488945 30.24036217 C-33.03904452 20.3642571 -32.96805276 13.00399217 -25.71484375 5.5859375 C-17.37929552 -0.02452766 -9.78286269 -0.05006771 0 0 Z M-18.46484375 14.3984375 C-21.34924023 18.25328961 -21.84602017 21.07218772 -21.86889648 25.83764648 C-21.88158066 27.11925156 -21.89426483 28.40085663 -21.90733337 29.72129822 C-21.90528173 31.11237754 -21.90229353 32.50345576 -21.8984375 33.89453125 C-21.90300201 35.33032986 -21.90830839 36.76612628 -21.9143219 38.20191956 C-21.92324271 41.20705048 -21.920842 44.21191552 -21.91088867 47.21704102 C-21.89940241 51.05832994 -21.91960915 54.89869909 -21.94880581 58.73986721 C-21.96719827 61.70398234 -21.96686935 64.66787831 -21.96116829 67.63203621 C-21.96101543 69.04775342 -21.96703036 70.46348583 -21.97945976 71.87914848 C-21.99442187 73.86265855 -21.98103582 75.84632036 -21.96655273 77.82983398 C-21.96638657 78.95614731 -21.9662204 80.08246063 -21.96604919 81.24290466 C-21.3404112 85.18185075 -19.97605022 87.32603033 -17.46484375 90.3984375 C-14.25526008 92.72665067 -11.31043994 92.65638949 -7.41455078 92.6730957 C-5.58212326 92.68739372 -5.58212326 92.68739372 -3.712677 92.70198059 C-2.39597015 92.70106918 -1.07926331 92.70015778 0.27734375 92.69921875 C1.64730967 92.70310819 3.01727438 92.70744337 4.38723755 92.71220398 C7.25705882 92.7196589 10.12675706 92.71938064 12.99658203 92.71411133 C16.66399396 92.70832324 20.33089977 92.72523461 23.99822807 92.748456 C26.82763587 92.76323069 29.65692291 92.7640599 32.48636246 92.76094627 C34.49262975 92.76170561 36.49887838 92.77555124 38.50509644 92.78962708 C39.7330191 92.78339828 40.96094177 92.77716949 42.22607422 92.77075195 C43.8401265 92.77169609 43.8401265 92.77169609 45.48678589 92.7726593 C50.18699725 92.19565541 53.37864992 90.8257202 56.38589478 87.11437988 C57.757828 83.87221813 57.915898 81.46206265 57.92333984 77.94335938 C57.93752457 76.01611023 57.93752457 76.01611023 57.95199585 74.04992676 C57.94662582 72.65567719 57.94047279 71.26143044 57.93359375 69.8671875 C57.93561623 68.42899427 57.93852913 66.99080204 57.94229126 65.5526123 C57.94670645 62.543276 57.94030982 59.53420744 57.92626953 56.52490234 C57.90917777 52.67467689 57.91902332 48.82507886 57.93698692 44.9748764 C57.94784675 42.00652368 57.94436842 39.03831881 57.93660355 36.06996155 C57.9346076 34.65063909 57.9370395 33.23130305 57.94404221 31.81199646 C57.951692 29.82583893 57.93795785 27.8396341 57.92333984 25.85351562 C57.91975967 24.16071472 57.91975967 24.16071472 57.91610718 22.43371582 C57.48599096 19.00670636 56.59517907 17.14866926 54.53515625 14.3984375 C48.19887705 10.42904699 41.47783829 10.96409774 34.19140625 11 C32.90834595 10.99712982 31.62528564 10.99425964 30.30334473 10.99130249 C27.59681269 10.98689782 24.89057916 10.99324954 22.18408203 11.00732422 C18.73092125 11.02441555 15.27846018 11.01456428 11.82532501 10.99660683 C8.50979739 10.98310259 5.19445369 10.99258319 1.87890625 11 C0.64644165 10.99392731 -0.58602295 10.98785461 -1.85583496 10.9815979 C-10.59523065 11.03798319 -10.59523065 11.03798319 -18.46484375 14.3984375 Z " fill="#000000" transform="translate(315.46484375,289.6015625)"/>
<path d="M0 0 C1.31188797 -0.0127597 2.62377594 -0.02551941 3.97541809 -0.03866577 C5.39596406 -0.04172399 6.81651203 -0.04395145 8.23706055 -0.04541016 C9.7090823 -0.05184568 11.1811028 -0.05857459 12.65312195 -0.06558228 C15.73378461 -0.07752987 18.81433535 -0.08126576 21.89501953 -0.08007812 C25.82225353 -0.07987519 29.74876184 -0.10716161 33.67582417 -0.14162254 C36.71552253 -0.16397677 39.75504867 -0.16791306 42.79482079 -0.16685867 C44.24156377 -0.16920243 45.6883124 -0.17795618 47.13497353 -0.19352341 C55.97232186 -0.2797124 64.33310907 -0.29581627 71.17915344 6.01138306 C76.24031666 11.34507083 77.55210333 16.86057887 77.61767578 24.14697266 C77.6259993 24.80478226 77.63432281 25.46259186 77.64289856 26.14033508 C77.66685331 28.29983569 77.67575349 30.45903325 77.68237305 32.61865234 C77.69135191 34.13311852 77.70047396 35.64758385 77.70973206 37.16204834 C77.72618623 40.33266344 77.73391536 43.50317341 77.73681641 46.67382812 C77.7421902 50.71319398 77.77984268 54.75155509 77.82556057 58.79063797 C77.85548109 61.91873676 77.86254322 65.04659821 77.86354256 68.17482758 C77.86771684 69.66263164 77.8800375 71.15043828 77.9010601 72.63809967 C78.01600319 81.47674646 77.53940508 88.83245303 72.3112793 96.29052734 C70.0300293 98.54443359 70.0300293 98.54443359 67.8112793 99.85302734 C67.0790918 100.30806641 66.3469043 100.76310547 65.5925293 101.23193359 C61.20362994 103.26856326 56.8889837 103.4214301 52.10327148 103.45166016 C50.25545074 103.46607147 50.25545074 103.46607147 48.37030029 103.48077393 C47.0329202 103.4856233 45.69553793 103.48990178 44.3581543 103.49365234 C43.67892159 103.49647972 42.99968887 103.4993071 42.29987335 103.50222015 C38.70389929 103.51717623 35.10796496 103.52642773 31.51196289 103.53076172 C27.81912663 103.53623484 24.12666121 103.56024822 20.43394089 103.58873367 C17.57526629 103.60746644 14.71667906 103.61257131 11.8579483 103.6140976 C9.84127007 103.6185516 7.82463882 103.63714579 5.80804443 103.65606689 C-2.84816054 103.63519237 -9.69866357 102.92547073 -17.0012207 98.10302734 C-24.65921357 90.08884876 -24.28382879 81.71500763 -24.2199707 71.25927734 C-24.22266991 69.69803628 -24.22655589 68.13679687 -24.23156738 66.57556152 C-24.23744235 63.31420785 -24.22896483 60.05329441 -24.21020508 56.79199219 C-24.18741615 52.62924907 -24.20055011 48.46753779 -24.22449493 44.30483246 C-24.23900759 41.08413029 -24.23432209 37.86366936 -24.22398376 34.64295959 C-24.22133153 33.10889054 -24.22453285 31.57479897 -24.23390198 30.04075623 C-24.27779275 20.83626073 -24.17692515 13.59849516 -17.9777832 6.26708984 C-17.42864258 5.82107422 -16.87950195 5.37505859 -16.3137207 4.91552734 C-15.76973633 4.45404297 -15.22575195 3.99255859 -14.6652832 3.51708984 C-10.00264858 0.62367626 -5.39924088 0.03579963 0 0 Z M-10.6887207 15.29052734 C-12.89314754 18.71422225 -12.95204568 21.59223636 -12.97924805 25.61621094 C-12.9983876 27.53873184 -12.9983876 27.53873184 -13.01791382 29.50009155 C-13.02097155 30.89638111 -13.02319927 32.2926727 -13.0246582 33.68896484 C-13.03108834 35.12619153 -13.03781686 36.56341691 -13.04483032 38.00064087 C-13.05679591 41.01168857 -13.06051191 44.02262161 -13.05932617 47.03369141 C-13.05912306 50.88281389 -13.08641956 54.73119741 -13.12087059 58.58014488 C-13.1431625 61.54852645 -13.14716302 64.51673084 -13.14610672 67.48518753 C-13.14845945 68.9037086 -13.1572646 70.3222348 -13.17277145 71.74067307 C-13.19247322 73.72903609 -13.18406017 75.71761675 -13.17456055 77.70605469 C-13.17741058 78.83538422 -13.18026062 79.96471375 -13.18319702 81.12826538 C-12.55651122 85.13602996 -11.33539683 87.22750156 -8.6887207 90.29052734 C-4.67389438 92.18611637 -1.10547216 92.54517395 3.29736328 92.56518555 C5.03462929 92.57948357 5.03462929 92.57948357 6.80699158 92.59407043 C8.04461746 92.59315903 9.28224335 92.59224762 10.55737305 92.59130859 C11.8418483 92.59559372 13.12632355 92.59987885 14.44972229 92.60429382 C17.16216167 92.61173217 19.87447084 92.6114821 22.58691406 92.60620117 C26.04791679 92.6004081 29.50838409 92.61734448 32.96929836 92.64054585 C36.29034489 92.65889401 39.61127621 92.65509655 42.93237305 92.65380859 C44.78577553 92.66762321 44.78577553 92.66762321 46.67662048 92.68171692 C55.43059194 92.65316863 55.43059194 92.65316863 63.3112793 89.29052734 C66.19543334 85.43543938 66.69245515 82.61689548 66.71533203 77.85131836 C66.7280162 76.56971329 66.74070038 75.28810822 66.75376892 73.96766663 C66.75171727 72.5765873 66.74872908 71.18550909 66.74487305 69.79443359 C66.74943756 68.35863498 66.75474394 66.92283856 66.76075745 65.48704529 C66.76967826 62.48191436 66.76727755 59.47704932 66.75732422 56.47192383 C66.74583796 52.63063491 66.7660447 48.79026576 66.79524136 44.94909763 C66.81363382 41.9849825 66.8133049 39.02108654 66.80760384 36.05692863 C66.80745098 34.64121142 66.81346591 33.22547902 66.82589531 31.80981636 C66.84085742 29.82630629 66.82747136 27.84264448 66.81298828 25.85913086 C66.81282211 24.73281754 66.81265594 23.60650421 66.81248474 22.44606018 C66.18225527 18.47820663 64.88672808 16.35520063 62.3112793 13.29052734 C58.62788861 11.17708815 55.3449906 11.02984479 51.14746094 11 C49.92591812 10.9872403 48.70437531 10.97448059 47.44581604 10.96133423 C46.13427048 10.95910858 44.82272491 10.95688293 43.47143555 10.95458984 C42.10289879 10.94815708 40.73436339 10.94142836 39.36582947 10.93441772 C36.50199191 10.9224663 33.63827479 10.91873478 30.77441406 10.91992188 C27.11475463 10.92012516 23.45587091 10.89280481 19.7963953 10.85837746 C16.97127268 10.83608205 14.14633614 10.83208509 11.32113457 10.83314133 C9.31926088 10.82965143 7.31744528 10.80800906 5.31568909 10.78604126 C-3.54937181 10.69951708 -3.54937181 10.69951708 -10.6887207 15.29052734 Z " fill="#000000" transform="translate(306.688720703125,117.70947265625)"/>
<path d="M0 0 C1.40190278 -0.00202529 2.80380453 -0.0049405 4.20570374 -0.00869751 C7.13325098 -0.01310098 10.06052217 -0.00675523 12.98803711 0.00732422 C16.71784214 0.02439938 20.44699855 0.01457346 24.17677975 -0.00339317 C27.06894201 -0.01429855 29.96095369 -0.01075372 32.8531208 -0.0030098 C34.22727093 -0.00102555 35.60143527 -0.00340376 36.97556877 -0.01044846 C45.94023063 -0.04632703 53.40904115 0.4858721 61.28515625 4.9609375 C68.9434458 13.25741785 69.2718631 22.40821106 69.1640625 33.15234375 C69.16489317 34.66348949 69.16736 36.17463511 69.17137146 37.68577576 C69.1742141 40.83693981 69.15967909 43.98738705 69.13208008 47.13842773 C69.09796947 51.1553332 69.10403943 55.1709612 69.12274265 59.1879282 C69.13336495 62.30318143 69.1243283 65.41814289 69.10935783 68.53336906 C69.10421577 70.01357084 69.10460892 71.4938036 69.11090279 72.97400093 C69.1564221 90.10389554 69.1564221 90.10389554 63.1943512 96.93458557 C55.19672145 104.21030669 46.75142904 103.85992462 36.51171875 103.83203125 C35.04112509 103.83659955 33.57053355 103.84190705 32.09994507 103.84791565 C29.02520041 103.85682323 25.9507158 103.85445144 22.87597656 103.84448242 C18.95657699 103.83300645 15.03808027 103.85319413 11.11879921 103.88239956 C8.0833679 103.90084355 5.04814959 103.90045275 2.01267624 103.89476204 C0.56873688 103.89460976 -0.87521779 103.90057567 -2.31910324 103.91305351 C-11.18947195 103.97891085 -19.53495937 104.0169171 -26.33285522 97.64842224 C-31.23794206 92.37456451 -32.71055202 87.64827039 -32.75537109 80.44018555 C-32.76208832 79.75980225 -32.76880554 79.07941895 -32.77572632 78.37841797 C-32.79465523 76.13892218 -32.79862805 73.89972697 -32.80078125 71.66015625 C-32.80721338 70.0946287 -32.81394205 68.52910234 -32.82095337 66.96357727 C-32.83291382 63.68443009 -32.83663553 60.40538815 -32.83544922 57.1262207 C-32.83524625 52.93992632 -32.86253075 48.75431246 -32.89699364 44.56817913 C-32.91931647 41.33465015 -32.9232851 38.10128344 -32.92222977 34.86768532 C-32.92457831 33.32522045 -32.93335951 31.78275059 -32.9488945 30.24036217 C-33.03904452 20.3642571 -32.96805276 13.00399217 -25.71484375 5.5859375 C-17.37929552 -0.02452766 -9.78286269 -0.05006771 0 0 Z M-18.46484375 14.3984375 C-21.35762994 18.2604493 -21.84292743 21.07800408 -21.85302734 25.85351562 C-21.86248383 27.13834839 -21.87194031 28.42318115 -21.88168335 29.74694824 C-21.87631332 31.14119781 -21.87016029 32.53544456 -21.86328125 33.9296875 C-21.86530373 35.36788073 -21.86821663 36.80607296 -21.87197876 38.2442627 C-21.87639395 41.253599 -21.86999732 44.26266756 -21.85595703 47.27197266 C-21.83886527 51.12219811 -21.84871082 54.97179614 -21.86667442 58.8219986 C-21.87753425 61.79035132 -21.87405592 64.75855619 -21.86629105 67.72691345 C-21.8642951 69.14623591 -21.866727 70.56557195 -21.87372971 71.98487854 C-21.8813795 73.97103607 -21.86764535 75.9572409 -21.85302734 77.94335938 C-21.85064056 79.07189331 -21.84825378 80.20042725 -21.84579468 81.36315918 C-21.40788475 84.85226604 -20.62738367 86.63629715 -18.46484375 89.3984375 C-14.7403599 92.2913608 -11.96123719 92.77624741 -7.30102539 92.78662109 C-5.46871117 92.80080582 -5.46871117 92.80080582 -3.59938049 92.8152771 C-2.28783493 92.80920441 -0.97628937 92.80313171 0.375 92.796875 C1.74353694 92.7988979 3.11207282 92.80181114 4.48060608 92.80557251 C7.34451593 92.80998725 10.20814443 92.8035936 13.07202148 92.78955078 C16.73158949 92.77247517 20.39049657 92.78229448 24.05004025 92.80026817 C26.87517719 92.81114313 29.70015919 92.80764251 32.52530098 92.7998848 C34.52712053 92.79692727 36.52894625 92.80599408 38.53074646 92.8152771 C39.75544144 92.80582062 40.98013641 92.79636414 42.24194336 92.78662109 C43.31496201 92.78423431 44.38798065 92.78184753 45.49351501 92.77938843 C50.18728778 92.19151598 53.38150148 90.822201 56.38589478 87.11437988 C57.757828 83.87221813 57.915898 81.46206265 57.92333984 77.94335938 C57.93752457 76.01611023 57.93752457 76.01611023 57.95199585 74.04992676 C57.94662582 72.65567719 57.94047279 71.26143044 57.93359375 69.8671875 C57.93561623 68.42899427 57.93852913 66.99080204 57.94229126 65.5526123 C57.94670645 62.543276 57.94030982 59.53420744 57.92626953 56.52490234 C57.90917777 52.67467689 57.91902332 48.82507886 57.93698692 44.9748764 C57.94784675 42.00652368 57.94436842 39.03831881 57.93660355 36.06996155 C57.9346076 34.65063909 57.9370395 33.23130305 57.94404221 31.81199646 C57.951692 29.82583893 57.93795785 27.8396341 57.92333984 25.85351562 C57.91975967 24.16071472 57.91975967 24.16071472 57.91610718 22.43371582 C57.48599096 19.00670636 56.59517907 17.14866926 54.53515625 14.3984375 C48.19887705 10.42904699 41.47783829 10.96409774 34.19140625 11 C32.90834595 10.99712982 31.62528564 10.99425964 30.30334473 10.99130249 C27.59681269 10.98689782 24.89057916 10.99324954 22.18408203 11.00732422 C18.73092125 11.02441555 15.27846018 11.01456428 11.82532501 10.99660683 C8.50979739 10.98310259 5.19445369 10.99258319 1.87890625 11 C0.64644165 10.99392731 -0.58602295 10.98785461 -1.85583496 10.9815979 C-10.59523065 11.03798319 -10.59523065 11.03798319 -18.46484375 14.3984375 Z " fill="#000000" transform="translate(145.46484375,289.6015625)"/>
<path d="M0 0 C1.31188797 -0.0127597 2.62377594 -0.02551941 3.97541809 -0.03866577 C5.39596406 -0.04172399 6.81651203 -0.04395145 8.23706055 -0.04541016 C9.7090823 -0.05184568 11.1811028 -0.05857459 12.65312195 -0.06558228 C15.73378461 -0.07752987 18.81433535 -0.08126576 21.89501953 -0.08007812 C25.82225353 -0.07987519 29.74876184 -0.10716161 33.67582417 -0.14162254 C36.71552253 -0.16397677 39.75504867 -0.16791306 42.79482079 -0.16685867 C44.24156377 -0.16920243 45.6883124 -0.17795618 47.13497353 -0.19352341 C55.97232186 -0.2797124 64.33310907 -0.29581627 71.17915344 6.01138306 C76.24031666 11.34507083 77.55210333 16.86057887 77.61767578 24.14697266 C77.6259993 24.80478226 77.63432281 25.46259186 77.64289856 26.14033508 C77.66685331 28.29983569 77.67575349 30.45903325 77.68237305 32.61865234 C77.69135191 34.13311852 77.70047396 35.64758385 77.70973206 37.16204834 C77.72618623 40.33266344 77.73391536 43.50317341 77.73681641 46.67382812 C77.7421902 50.71319398 77.77984268 54.75155509 77.82556057 58.79063797 C77.85548109 61.91873676 77.86254322 65.04659821 77.86354256 68.17482758 C77.86771684 69.66263164 77.8800375 71.15043828 77.9010601 72.63809967 C78.01600319 81.47674646 77.53940508 88.83245303 72.3112793 96.29052734 C70.0300293 98.54443359 70.0300293 98.54443359 67.8112793 99.85302734 C67.0790918 100.30806641 66.3469043 100.76310547 65.5925293 101.23193359 C61.20362994 103.26856326 56.8889837 103.4214301 52.10327148 103.45166016 C50.25545074 103.46607147 50.25545074 103.46607147 48.37030029 103.48077393 C47.0329202 103.4856233 45.69553793 103.48990178 44.3581543 103.49365234 C43.67892159 103.49647972 42.99968887 103.4993071 42.29987335 103.50222015 C38.70389929 103.51717623 35.10796496 103.52642773 31.51196289 103.53076172 C27.81912663 103.53623484 24.12666121 103.56024822 20.43394089 103.58873367 C17.57526629 103.60746644 14.71667906 103.61257131 11.8579483 103.6140976 C9.84127007 103.6185516 7.82463882 103.63714579 5.80804443 103.65606689 C-2.84816054 103.63519237 -9.69866357 102.92547073 -17.0012207 98.10302734 C-24.65921357 90.08884876 -24.28382879 81.71500763 -24.2199707 71.25927734 C-24.22266991 69.69803628 -24.22655589 68.13679687 -24.23156738 66.57556152 C-24.23744235 63.31420785 -24.22896483 60.05329441 -24.21020508 56.79199219 C-24.18741615 52.62924907 -24.20055011 48.46753779 -24.22449493 44.30483246 C-24.23900759 41.08413029 -24.23432209 37.86366936 -24.22398376 34.64295959 C-24.22133153 33.10889054 -24.22453285 31.57479897 -24.23390198 30.04075623 C-24.27779275 20.83626073 -24.17692515 13.59849516 -17.9777832 6.26708984 C-17.42864258 5.82107422 -16.87950195 5.37505859 -16.3137207 4.91552734 C-15.76973633 4.45404297 -15.22575195 3.99255859 -14.6652832 3.51708984 C-10.00264858 0.62367626 -5.39924088 0.03579963 0 0 Z M-10.6887207 15.29052734 C-13.05542655 18.84058611 -12.95127127 20.3826096 -12.97924805 24.59448242 C-12.9983876 26.54714775 -12.9983876 26.54714775 -13.01791382 28.53926086 C-13.02097175 29.9628586 -13.02319936 31.38645832 -13.0246582 32.81005859 C-13.03108624 34.27113476 -13.0378146 35.73220962 -13.04483032 37.19328308 C-13.05680799 40.25738507 -13.06051078 43.3213743 -13.05932617 46.38549805 C-13.05912323 50.30302568 -13.08639669 54.21982584 -13.12087059 58.13718128 C-13.14316335 61.15617664 -13.14716296 64.17499778 -13.14610672 67.194067 C-13.14846021 68.6377074 -13.15726966 70.08135279 -13.17277145 71.52491188 C-13.19247068 73.54930839 -13.18406083 75.57391861 -13.17456055 77.59838867 C-13.17741058 78.7484993 -13.18026062 79.89860992 -13.18319702 81.08357239 C-12.56094007 85.1192561 -11.35685889 87.21032088 -8.6887207 90.29052734 C-4.67389438 92.18611637 -1.10547216 92.54517395 3.29736328 92.56518555 C5.03462929 92.57948357 5.03462929 92.57948357 6.80699158 92.59407043 C8.04461746 92.59315903 9.28224335 92.59224762 10.55737305 92.59130859 C11.8418483 92.59559372 13.12632355 92.59987885 14.44972229 92.60429382 C17.16216167 92.61173217 19.87447084 92.6114821 22.58691406 92.60620117 C26.04791679 92.6004081 29.50838409 92.61734448 32.96929836 92.64054585 C36.29034489 92.65889401 39.61127621 92.65509655 42.93237305 92.65380859 C44.78577553 92.66762321 44.78577553 92.66762321 46.67662048 92.68171692 C55.43059194 92.65316863 55.43059194 92.65316863 63.3112793 89.29052734 C66.19543334 85.43543938 66.69245515 82.61689548 66.71533203 77.85131836 C66.7280162 76.56971329 66.74070038 75.28810822 66.75376892 73.96766663 C66.75171727 72.5765873 66.74872908 71.18550909 66.74487305 69.79443359 C66.74943756 68.35863498 66.75474394 66.92283856 66.76075745 65.48704529 C66.76967826 62.48191436 66.76727755 59.47704932 66.75732422 56.47192383 C66.74583796 52.63063491 66.7660447 48.79026576 66.79524136 44.94909763 C66.81363382 41.9849825 66.8133049 39.02108654 66.80760384 36.05692863 C66.80745098 34.64121142 66.81346591 33.22547902 66.82589531 31.80981636 C66.84085742 29.82630629 66.82747136 27.84264448 66.81298828 25.85913086 C66.81282211 24.73281754 66.81265594 23.60650421 66.81248474 22.44606018 C66.18225527 18.47820663 64.88672808 16.35520063 62.3112793 13.29052734 C58.62788861 11.17708815 55.3449906 11.02984479 51.14746094 11 C49.92591812 10.9872403 48.70437531 10.97448059 47.44581604 10.96133423 C46.13427048 10.95910858 44.82272491 10.95688293 43.47143555 10.95458984 C42.10289879 10.94815708 40.73436339 10.94142836 39.36582947 10.93441772 C36.50199191 10.9224663 33.63827479 10.91873478 30.77441406 10.91992188 C27.11475463 10.92012516 23.45587091 10.89280481 19.7963953 10.85837746 C16.97127268 10.83608205 14.14633614 10.83208509 11.32113457 10.83314133 C9.31926088 10.82965143 7.31744528 10.80800906 5.31568909 10.78604126 C-3.52888128 10.72931521 -3.52888128 10.72931521 -10.6887207 15.29052734 Z " fill="#000000" transform="translate(136.688720703125,117.70947265625)"/>
<path d="M0 0 C2.9375 0.375 2.9375 0.375 4.9375 2.375 C5.19476891 4.17051697 5.19476891 4.17051697 5.20492554 6.38256836 C5.21345551 7.22069565 5.22198547 8.05882294 5.23077393 8.92234802 C5.22986755 9.84387161 5.22896118 10.7653952 5.22802734 11.71484375 C5.23474457 12.6841835 5.24146179 13.65352325 5.24838257 14.65223694 C5.26745254 17.87237618 5.27129225 21.09230772 5.2734375 24.3125 C5.27986262 26.55013109 5.28659076 28.78776132 5.29360962 31.02539062 C5.3056073 35.72641952 5.30928823 40.42737483 5.30810547 45.12841797 C5.30790293 51.13614709 5.33512715 57.14339972 5.36964989 63.15101624 C5.39196034 67.77860656 5.39594162 72.40608334 5.39488602 77.03372192 C5.39723873 79.24717846 5.40604354 81.46063828 5.42155075 83.67404175 C5.44128003 86.78302571 5.43534353 89.89099762 5.42333984 93 C5.43457886 93.90532974 5.44581787 94.81065948 5.45739746 95.74342346 C5.35447193 106.30329901 1.36369273 114.0677623 -6.0625 121.375 C-6.805 122.1175 -7.5475 122.86 -8.3125 123.625 C-19.60771192 130.81286213 -31.6051265 129.92938708 -44.50390625 129.8359375 C-46.68057648 129.83355025 -48.85724881 129.83264835 -51.03392029 129.8331604 C-55.57360916 129.83004602 -60.11297916 129.81357544 -64.65258789 129.78662109 C-70.48025499 129.75246042 -76.30757562 129.74499841 -82.13533115 129.74651146 C-86.61933212 129.74596896 -91.1032569 129.73502414 -95.58723259 129.72050858 C-97.73750165 129.71413531 -99.88777933 129.71020045 -102.03805733 129.70872116 C-105.03016178 129.70440412 -108.02189156 129.68694309 -111.01391602 129.66552734 C-111.90581635 129.66643372 -112.79771667 129.66734009 -113.71664429 129.66827393 C-119.83352761 129.60397239 -119.83352761 129.60397239 -122.0625 127.375 C-122.375 123.875 -122.375 123.875 -122.0625 120.375 C-118.11268075 117.74178716 -114.7272722 118.09773718 -110.14404297 118.11962891 C-109.23147232 118.11600845 -108.31890167 118.112388 -107.37867737 118.10865784 C-105.39472326 118.10175939 -103.41075016 118.09925924 -101.42678452 118.10060501 C-98.2818799 118.10156949 -95.13731781 118.08863528 -91.99246216 118.07162476 C-83.05001521 118.02534114 -74.10760161 118.00076343 -65.16503906 117.99414062 C-59.69549109 117.98911297 -54.2262979 117.96479396 -48.75687027 117.92881393 C-46.67659769 117.91904002 -44.59627614 117.91667078 -42.5159874 117.92198563 C-39.59605063 117.92909241 -36.6771621 117.91169776 -33.75732422 117.88916016 C-32.48044991 117.90141884 -32.48044991 117.90141884 -31.17778015 117.91392517 C-24.4587651 117.82219614 -18.2176212 116.29652646 -13.17263603 111.62505531 C-7.55893473 105.50382831 -6.76794725 100.02757856 -6.79125977 91.96655273 C-6.78341965 90.55595078 -6.78341965 90.55595078 -6.77542114 89.11685181 C-6.76519652 87.07945356 -6.75940342 85.0420293 -6.75753975 83.00460625 C-6.753875 79.78110939 -6.73714662 76.55791986 -6.71678162 73.33448792 C-6.66136935 64.17137352 -6.6306382 55.00821455 -6.60620117 45.8449707 C-6.59034451 40.23702631 -6.56014946 34.62930172 -6.52143669 29.02147102 C-6.5097742 26.88403719 -6.50385623 24.74656409 -6.50375557 22.60909843 C-6.50356395 19.6238489 -6.48533006 16.63920795 -6.46313477 13.65405273 C-6.46771194 12.76926743 -6.47228912 11.88448212 -6.477005 10.97288513 C-6.43482242 7.41193508 -6.39383831 5.01015766 -4.72886658 1.8184967 C-3.0625 0.375 -3.0625 0.375 0 0 Z " fill="#000000" transform="translate(501.0625,376.625)"/>
<path d="M0 0 C3.0625 0.375 3.0625 0.375 4.73085022 1.82147217 C6.74683982 5.68726754 6.46909826 9.30807438 6.43139648 13.60644531 C6.43516296 14.54027542 6.43892944 15.47410553 6.44281006 16.43623352 C6.44924361 18.46327969 6.44891149 20.49035602 6.44262505 22.51740265 C6.43351927 25.72939703 6.44373421 28.94080705 6.45924377 32.152771 C6.49935092 41.28461786 6.50054952 50.41641957 6.49829102 59.54833984 C6.49823983 65.13572039 6.51745447 70.72278701 6.54762459 76.31008148 C6.55842945 79.46761018 6.54632919 82.62453432 6.53379822 85.78204346 C6.54270673 87.73002716 6.55278253 89.678006 6.56420898 91.62597656 C6.55446548 92.49795181 6.54472198 93.36992706 6.53468323 94.26832581 C6.61334882 101.01499635 8.38679914 106.21058666 12.7734375 111.3984375 C13.59714844 112.06746094 13.59714844 112.06746094 14.4375 112.75 C14.98148438 113.21148437 15.52546875 113.67296875 16.0859375 114.1484375 C21.62406924 117.58514376 27.11712269 117.66928498 33.41674805 117.66210938 C34.33939453 117.66894241 35.26204102 117.67577545 36.21264648 117.68281555 C38.20800544 117.69636502 40.20339874 117.70544299 42.19879723 117.71052551 C45.35488811 117.71883071 48.51069192 117.73934837 51.66670227 117.76306152 C59.5003555 117.8194037 67.33407817 117.85473335 75.16784668 117.89068604 C81.79671884 117.92189497 88.42545011 117.96104556 95.05420876 118.01094055 C98.16691066 118.03104136 101.27950435 118.03933328 104.39225769 118.04724121 C106.29365437 118.06020882 108.19504739 118.07372842 110.09643555 118.08789062 C111.39859764 118.08641777 111.39859764 118.08641777 112.72706604 118.08491516 C118.72095969 118.14730646 118.72095969 118.14730646 122.0625 120.375 C122.375 123.875 122.375 123.875 122.0625 127.375 C119.38900756 130.04849244 117.35268559 129.63005135 113.71664429 129.66827393 C112.37879379 129.66691437 112.37879379 129.66691437 111.01391602 129.66552734 C110.07544327 129.67224457 109.13697052 129.67896179 108.1700592 129.68588257 C105.05212163 129.7049533 101.93439861 129.70879247 98.81640625 129.7109375 C96.64843151 129.71736325 94.48045765 129.72409144 92.31248474 129.73110962 C87.75688673 129.74310796 83.20136466 129.74678823 78.64575195 129.74560547 C72.82868514 129.74540308 67.01211127 129.77261121 61.19516087 129.80714989 C56.71078798 129.82948141 52.22653208 129.83344096 47.7421093 129.83238602 C45.5992559 129.83473618 43.45639899 129.84352652 41.31360054 129.85905075 C15.00943851 130.03164227 15.00943851 130.03164227 4.70703125 120.0859375 C4.16433594 119.52132812 3.62164062 118.95671875 3.0625 118.375 C1.94875 117.2303125 1.94875 117.2303125 0.8125 116.0625 C-3.96932502 108.71898301 -5.53080382 101.65648357 -5.42333984 93 C-5.42713654 92.01664169 -5.43093323 91.03328339 -5.43484497 90.02012634 C-5.44219064 86.80474865 -5.42096402 83.5902958 -5.3984375 80.375 C-5.39605088 78.12963975 -5.39514821 75.88427748 -5.3956604 73.63891602 C-5.39254341 68.95201984 -5.37605387 64.26543197 -5.34912109 59.57861328 C-5.31498563 53.56147061 -5.30749755 47.5446635 -5.30901146 41.5274353 C-5.30846892 36.90017476 -5.29752301 32.27298802 -5.28300858 27.64575195 C-5.27663395 25.42570554 -5.27270013 23.20565077 -5.27122116 20.9855957 C-5.26690413 17.89519831 -5.2494423 14.80516369 -5.22802734 11.71484375 C-5.22893372 10.79332016 -5.22984009 9.87179657 -5.23077393 8.92234802 C-5.22224396 8.08422073 -5.21371399 7.24609344 -5.20492554 6.38256836 C-5.20157385 5.6525914 -5.19822216 4.92261444 -5.19476891 4.17051697 C-4.7127373 0.80634855 -3.15783361 0.4031277 0 0 Z " fill="#000000" transform="translate(10.9375,376.625)"/>
<path d="M0 0 C1.33785049 0.00135956 1.33785049 0.00135956 2.70272827 0.00274658 C4.11043739 -0.00732925 4.11043739 -0.00732925 5.54658508 -0.01760864 C8.66452265 -0.03667937 11.78224568 -0.04051855 14.90023804 -0.04266357 C17.06821278 -0.04908932 19.23618664 -0.05581751 21.40415955 -0.06283569 C25.95975756 -0.07483403 30.51527963 -0.07851431 35.07089233 -0.07733154 C40.88795915 -0.07712915 46.70453302 -0.10433728 52.52148342 -0.13887596 C57.00585631 -0.16120749 61.49011221 -0.16516703 65.97453499 -0.16411209 C68.11738839 -0.16646225 70.26024529 -0.1752526 72.40304375 -0.19077682 C98.70720578 -0.36336834 98.70720578 -0.36336834 109.00961304 9.58233643 C109.55230835 10.1469458 110.09500366 10.71155518 110.65414429 11.29327393 C111.39664429 12.05639893 112.13914429 12.81952393 112.90414429 13.60577393 C117.68596931 20.94929092 119.24744811 28.01179035 119.13998413 36.66827393 C119.14378082 37.65163223 119.14757751 38.63499054 119.15148926 39.64814758 C119.15883493 42.86352528 119.13760831 46.07797813 119.11508179 49.29327393 C119.11269517 51.53863418 119.1117925 53.78399645 119.11230469 56.02935791 C119.1091877 60.71625408 119.09269816 65.40284196 119.06576538 70.08966064 C119.03162991 76.10680332 119.02414184 82.12361043 119.02565575 88.14083862 C119.02511321 92.76809917 119.01416729 97.39528591 118.99965286 102.02252197 C118.99327824 104.24256838 118.98934442 106.46262315 118.98786545 108.68267822 C118.98354842 111.77307562 118.96608659 114.86311024 118.94467163 117.95343018 C118.945578 118.87495377 118.94648438 119.79647736 118.94741821 120.7459259 C118.93888824 121.58405319 118.93035828 122.42218048 118.92156982 123.28570557 C118.91821814 124.01568253 118.91486645 124.74565948 118.91141319 125.49775696 C118.65414429 127.29327393 118.65414429 127.29327393 116.65414429 129.29327393 C113.71664429 129.66827393 113.71664429 129.66827393 110.65414429 129.29327393 C108.62561906 127.53452732 107.76435674 126.0684913 107.38482857 123.39894867 C107.27144732 120.94830013 107.26373016 118.51505 107.2852478 116.06182861 C107.27959808 114.66108345 107.27959808 114.66108345 107.27383423 113.23204041 C107.26740068 111.20499424 107.2677328 109.17791791 107.27401924 107.15087128 C107.28312502 103.9388769 107.27291008 100.72746688 107.25740051 97.51550293 C107.21729337 88.38365606 107.21609477 79.25185436 107.21835327 70.11993408 C107.21840446 64.53255353 107.19918981 58.94548691 107.1690197 53.35819244 C107.15821484 50.20066374 107.1703151 47.04373961 107.18284607 43.88623047 C107.17393756 41.93824676 107.16386176 39.99026793 107.1524353 38.04229736 C107.1621788 37.17032211 107.1719223 36.29834686 107.18196106 35.39994812 C107.10329547 28.65327758 105.32984514 23.45768727 100.94320679 18.26983643 C100.39406616 17.8238208 99.84492554 17.37780518 99.27914429 16.91827393 C98.73515991 16.45678955 98.19117554 15.99530518 97.63070679 15.51983643 C92.09257504 12.08313017 86.5995216 11.99898895 80.29989624 12.00616455 C78.91592651 11.99591499 78.91592651 11.99591499 77.5039978 11.98545837 C75.50863885 11.9719089 73.51324555 11.96283094 71.51784706 11.95774841 C68.36175618 11.94944322 65.20595237 11.92892555 62.04994202 11.9052124 C54.21628879 11.84887022 46.38256612 11.81354058 38.54879761 11.77758789 C31.91992545 11.74637896 25.29119418 11.70722837 18.66243553 11.65733337 C15.54973363 11.63723256 12.43713994 11.62894065 9.3243866 11.62103271 C7.42298992 11.60806511 5.5215969 11.59454551 3.62020874 11.5803833 C2.75210068 11.5813652 1.88399261 11.58234711 0.98957825 11.58335876 C-5.0043154 11.52096747 -5.0043154 11.52096747 -8.34585571 9.29327393 C-8.65835571 5.79327393 -8.65835571 5.79327393 -8.34585571 2.29327393 C-5.67236327 -0.38021852 -3.63604131 0.03822258 0 0 Z " fill="#000000" transform="translate(387.3458557128906,5.70672607421875)"/>
<path d="M0 0 C2.17667023 0.00238725 4.35334256 0.00328915 6.53001404 0.0027771 C11.06970291 0.00589148 15.60907291 0.02236206 20.14868164 0.04931641 C25.97634874 0.08347708 31.80366937 0.09093909 37.6314249 0.08942604 C42.11542587 0.08996854 46.59935065 0.10091336 51.08332634 0.11542892 C53.2335954 0.12180219 55.38387308 0.12573705 57.53415108 0.12721634 C60.52625553 0.13153338 63.51798531 0.14899441 66.51000977 0.17041016 C67.4019101 0.16950378 68.29381042 0.16859741 69.21273804 0.16766357 C75.32962136 0.23196511 75.32962136 0.23196511 77.55859375 2.4609375 C77.87109375 5.9609375 77.87109375 5.9609375 77.55859375 9.4609375 C73.60374429 12.0975038 70.1986503 11.7457013 65.60839844 11.73217773 C64.6926152 11.73740448 63.77683197 11.74263123 62.83329773 11.74801636 C60.84279852 11.75826438 58.85227246 11.76403816 56.86174774 11.76589775 C53.70899416 11.76955617 50.55655664 11.78626977 47.40386963 11.80665588 C38.43939091 11.86211023 29.47486489 11.89272126 20.51025391 11.91723633 C15.02779302 11.93313357 9.54555488 11.96337941 4.06320953 12.00200081 C1.97570414 12.01363581 -0.11184115 12.01958103 -2.19937897 12.01968193 C-5.1243658 12.01987452 -8.04874119 12.03818183 -10.97363281 12.06030273 C-11.83207291 12.05572556 -12.690513 12.05114838 -13.57496643 12.0464325 C-20.40778507 12.12836047 -25.85697607 13.68937287 -31.19140625 18.2109375 C-31.743125 18.65953125 -32.29484375 19.108125 -32.86328125 19.5703125 C-37.5752344 25.21532568 -37.87554828 31.06472644 -37.82617188 38.09643555 C-37.83154465 39.03712891 -37.83691742 39.97782227 -37.842453 40.94702148 C-37.85219891 42.97892395 -37.85518484 45.01086788 -37.85209656 47.04279137 C-37.84760672 50.25812453 -37.86165016 53.47291084 -37.88049316 56.68818665 C-37.92344745 64.66835832 -37.9345406 72.64851714 -37.94671631 80.62878418 C-37.95823408 87.38342251 -37.98175415 94.13781 -38.02140808 100.89234352 C-38.0349992 104.06104113 -38.03080473 107.22940164 -38.02600098 110.39811707 C-38.03533861 112.33662347 -38.04550667 114.27512612 -38.05664062 116.21362305 C-38.0504924 117.09526627 -38.04434418 117.97690948 -38.03800964 118.88526917 C-38.07394336 122.44047873 -38.11153949 124.82862112 -39.77404785 128.01545715 C-41.44140625 129.4609375 -41.44140625 129.4609375 -44.50390625 129.8359375 C-47.44140625 129.4609375 -47.44140625 129.4609375 -49.44140625 127.4609375 C-49.69867516 125.66542053 -49.69867516 125.66542053 -49.70883179 123.45336914 C-49.71736176 122.61524185 -49.72589172 121.77711456 -49.73468018 120.91358948 C-49.7337738 119.99206589 -49.73286743 119.0705423 -49.73193359 118.12109375 C-49.73865082 117.151754 -49.74536804 116.18241425 -49.75228882 115.18370056 C-49.77135879 111.96356132 -49.7751985 108.74362978 -49.77734375 105.5234375 C-49.78376887 103.28580641 -49.79049701 101.04817618 -49.79751587 98.81054688 C-49.80951355 94.10951798 -49.81319448 89.40856267 -49.81201172 84.70751953 C-49.81180918 78.69979041 -49.8390334 72.69253778 -49.87355614 66.68492126 C-49.89586659 62.05733094 -49.89984787 57.42985416 -49.89879227 52.80221558 C-49.90114498 50.58875904 -49.90994979 48.37529922 -49.925457 46.16189575 C-49.94518628 43.05291179 -49.93924978 39.94493988 -49.92724609 36.8359375 C-49.93848511 35.93060776 -49.94972412 35.02527802 -49.96130371 34.09251404 C-49.85837818 23.53263849 -45.86759898 15.7681752 -38.44140625 8.4609375 C-37.32765625 7.3471875 -37.32765625 7.3471875 -36.19140625 6.2109375 C-24.89619433 -0.97692463 -12.89877975 -0.09344958 0 0 Z " fill="#000000" transform="translate(55.44140625,5.5390625)"/>
<path d="M0 0 C1.7325 0.1546875 1.7325 0.1546875 3.5 0.3125 C5.95281911 3.99172867 5.76823919 5.93509351 5.75 10.3125 C5.75515625 11.55 5.7603125 12.7875 5.765625 14.0625 C5.5 17.3125 5.5 17.3125 3.5 20.3125 C0 20.625 0 20.625 -3.5 20.3125 C-6.05948999 17.75301001 -5.76068731 16.04042805 -5.7734375 12.546875 C-5.76570313 11.80953125 -5.75796875 11.0721875 -5.75 10.3125 C-5.75773437 9.57515625 -5.76546875 8.8378125 -5.7734375 8.078125 C-5.74582763 0.51302032 -5.74582763 0.51302032 0 0 Z " fill="#23EA5F" transform="translate(333.5,350.6875)"/>
<path d="M0 0 C1.7325 0.1546875 1.7325 0.1546875 3.5 0.3125 C5.95281911 3.99172867 5.76823919 5.93509351 5.75 10.3125 C5.75515625 11.55 5.7603125 12.7875 5.765625 14.0625 C5.5 17.3125 5.5 17.3125 3.5 20.3125 C0 20.625 0 20.625 -3.5 20.3125 C-6.05948999 17.75301001 -5.76068731 16.04042805 -5.7734375 12.546875 C-5.76570312 11.80953125 -5.75796875 11.0721875 -5.75 10.3125 C-5.75773438 9.57515625 -5.76546875 8.8378125 -5.7734375 8.078125 C-5.74582763 0.51302032 -5.74582763 0.51302032 0 0 Z " fill="#23EA5F" transform="translate(163.5,350.6875)"/>
<path d="M0 0 C1.02770508 0.00483398 1.02770508 0.00483398 2.07617188 0.00976562 C3.09807617 -0.0144043 3.09807617 -0.0144043 4.140625 -0.0390625 C7.0579999 -0.04191987 9.14233601 -0.00113432 11.62304688 1.61523438 C13.3734911 4.55732718 12.40452819 7.1410163 11.63867188 10.32226562 C8.61998753 11.8316078 5.51058789 11.58806643 2.20117188 11.63476562 C1.51990234 11.66376953 0.83863281 11.69277344 0.13671875 11.72265625 C-3.15588713 11.76457973 -4.88895147 11.7639564 -7.34570312 9.46679688 C-8.68011679 6.64913111 -8.35785146 5.23517998 -7.36132812 2.32226562 C-4.88747141 -0.15159109 -3.38628585 0.03655461 0 0 Z " fill="#23EA60" transform="translate(350.361328125,335.677734375)"/>
<path d="M0 0 C1.02770508 0.00483398 1.02770508 0.00483398 2.07617188 0.00976562 C3.09807617 -0.0144043 3.09807617 -0.0144043 4.140625 -0.0390625 C7.0579999 -0.04191987 9.14233601 -0.00113432 11.62304688 1.61523438 C13.3734911 4.55732718 12.40452819 7.1410163 11.63867188 10.32226562 C8.61998753 11.8316078 5.51058789 11.58806643 2.20117188 11.63476562 C1.51990234 11.66376953 0.83863281 11.69277344 0.13671875 11.72265625 C-3.15588713 11.76457973 -4.88895147 11.7639564 -7.34570312 9.46679688 C-8.68011679 6.64913111 -8.35785146 5.23517998 -7.36132812 2.32226562 C-4.88747141 -0.15159109 -3.38628585 0.03655461 0 0 Z " fill="#23EA5F" transform="translate(180.361328125,335.677734375)"/>
<path d="M0 0 C1.7325 0.1546875 1.7325 0.1546875 3.5 0.3125 C5.95281911 3.99172867 5.76823919 5.93509351 5.75 10.3125 C5.75515625 11.55 5.7603125 12.7875 5.765625 14.0625 C5.5 17.3125 5.5 17.3125 3.5 20.3125 C0 20.625 0 20.625 -3.5 20.3125 C-6.05948999 17.75301001 -5.76068731 16.04042805 -5.7734375 12.546875 C-5.76570313 11.80953125 -5.75796875 11.0721875 -5.75 10.3125 C-5.75773437 9.57515625 -5.76546875 8.8378125 -5.7734375 8.078125 C-5.74582763 0.51302032 -5.74582763 0.51302032 0 0 Z " fill="#23EA5F" transform="translate(333.5,311.6875)"/>
<path d="M0 0 C1.7325 0.1546875 1.7325 0.1546875 3.5 0.3125 C5.95281911 3.99172867 5.76823919 5.93509351 5.75 10.3125 C5.75515625 11.55 5.7603125 12.7875 5.765625 14.0625 C5.5 17.3125 5.5 17.3125 3.5 20.3125 C0 20.625 0 20.625 -3.5 20.3125 C-6.05948999 17.75301001 -5.76068731 16.04042805 -5.7734375 12.546875 C-5.76570312 11.80953125 -5.75796875 11.0721875 -5.75 10.3125 C-5.75773438 9.57515625 -5.76546875 8.8378125 -5.7734375 8.078125 C-5.74582763 0.51302032 -5.74582763 0.51302032 0 0 Z " fill="#24EA5F" transform="translate(163.5,311.6875)"/>
<path d="M0 0 C1.7325 0.1546875 1.7325 0.1546875 3.5 0.3125 C5.95281911 3.99172867 5.76823919 5.93509351 5.75 10.3125 C5.75515625 11.55 5.7603125 12.7875 5.765625 14.0625 C5.5 17.3125 5.5 17.3125 3.5 20.3125 C0 20.625 0 20.625 -3.5 20.3125 C-6.05948999 17.75301001 -5.76068731 16.04042805 -5.7734375 12.546875 C-5.76570313 11.80953125 -5.75796875 11.0721875 -5.75 10.3125 C-5.75773437 9.57515625 -5.76546875 8.8378125 -5.7734375 8.078125 C-5.74582763 0.51302032 -5.74582763 0.51302032 0 0 Z " fill="#23EA5F" transform="translate(333.5,178.6875)"/>
<path d="M0 0 C1.02770508 0.00483398 1.02770508 0.00483398 2.07617188 0.00976562 C3.09807617 -0.0144043 3.09807617 -0.0144043 4.140625 -0.0390625 C7.08982646 -0.04195104 9.12935775 -0.03394807 11.58789062 1.68554688 C13.10216532 4.04421266 13.05023191 5.57853203 12.63867188 8.32226562 C11.58398438 9.95117188 11.58398438 9.95117188 9.63867188 11.32226562 C7.03424579 11.64781889 4.7377331 11.78699389 2.13867188 11.75976562 C1.46191406 11.77974609 0.78515625 11.79972656 0.08789062 11.8203125 C-3.1829683 11.8170868 -4.91433704 11.74280753 -7.34179688 9.45898438 C-8.68392815 6.64616518 -8.35727198 5.23348612 -7.36132812 2.32226562 C-4.88747141 -0.15159109 -3.38628585 0.03655461 0 0 Z " fill="#23EA60" transform="translate(350.361328125,163.677734375)"/>
<path d="M0 0 C1.02770508 0.00483398 1.02770508 0.00483398 2.07617188 0.00976562 C3.09807617 -0.0144043 3.09807617 -0.0144043 4.140625 -0.0390625 C7.08982646 -0.04195104 9.12935775 -0.03394807 11.58789062 1.68554688 C13.10216532 4.04421266 13.05023191 5.57853203 12.63867188 8.32226562 C11.58398438 9.95117188 11.58398438 9.95117188 9.63867188 11.32226562 C7.03424579 11.64781889 4.7377331 11.78699389 2.13867188 11.75976562 C1.46191406 11.77974609 0.78515625 11.79972656 0.08789062 11.8203125 C-3.1829683 11.8170868 -4.91433704 11.74280753 -7.34179688 9.45898438 C-8.68392815 6.64616518 -8.35727198 5.23348612 -7.36132812 2.32226562 C-4.88747141 -0.15159109 -3.38628585 0.03655461 0 0 Z " fill="#23EA60" transform="translate(180.361328125,163.677734375)"/>
<path d="M0 0 C1.7325 0.1546875 1.7325 0.1546875 3.5 0.3125 C5.94508878 3.98013317 5.79885724 5.94681775 5.8125 10.3125 C5.82925781 11.55 5.84601563 12.7875 5.86328125 14.0625 C5.5 17.3125 5.5 17.3125 4.171875 19.23046875 C1.59174943 20.90031637 -0.51202338 20.63036985 -3.5 20.3125 C-6.05948999 17.75301001 -5.76068731 16.04042805 -5.7734375 12.546875 C-5.76570312 11.80953125 -5.75796875 11.0721875 -5.75 10.3125 C-5.75773438 9.57515625 -5.76546875 8.8378125 -5.7734375 8.078125 C-5.74582763 0.51302032 -5.74582763 0.51302032 0 0 Z " fill="#23EA5F" transform="translate(163.5,178.6875)"/>
<path d="M0 0 C0.73734375 0.00773438 1.4746875 0.01546875 2.234375 0.0234375 C3.34039062 0.01183594 3.34039062 0.01183594 4.46875 0 C9.9810554 0.0201179 9.9810554 0.0201179 12.234375 2.2734375 C12.546875 5.7734375 12.546875 5.7734375 12.234375 9.2734375 C8.56674183 11.71852628 6.60005725 11.57229474 2.234375 11.5859375 C0.378125 11.61107422 0.378125 11.61107422 -1.515625 11.63671875 C-4.765625 11.2734375 -4.765625 11.2734375 -6.68359375 9.9453125 C-8.35344137 7.36518693 -8.08349485 5.26141412 -7.765625 2.2734375 C-5.20613501 -0.28605249 -3.49355305 0.01275019 0 0 Z " fill="#23EA5F" transform="translate(311.765625,163.7265625)"/>
<path d="M0 0 C0.73734375 0.00773438 1.4746875 0.01546875 2.234375 0.0234375 C3.34039062 0.01183594 3.34039062 0.01183594 4.46875 0 C9.9810554 0.0201179 9.9810554 0.0201179 12.234375 2.2734375 C12.546875 5.7734375 12.546875 5.7734375 12.234375 9.2734375 C8.56674183 11.71852628 6.60005725 11.57229474 2.234375 11.5859375 C0.378125 11.61107422 0.378125 11.61107422 -1.515625 11.63671875 C-4.765625 11.2734375 -4.765625 11.2734375 -6.68359375 9.9453125 C-8.35344137 7.36518693 -8.08349485 5.26141412 -7.765625 2.2734375 C-5.20613501 -0.28605249 -3.49355305 0.01275019 0 0 Z " fill="#23EA5F" transform="translate(141.765625,163.7265625)"/>
<path d="M0 0 C1.7325 0.1546875 1.7325 0.1546875 3.5 0.3125 C5.94508878 3.98013317 5.79885724 5.94681775 5.8125 10.3125 C5.82925781 11.55 5.84601563 12.7875 5.86328125 14.0625 C5.5 17.3125 5.5 17.3125 4.171875 19.23046875 C1.59174943 20.90031637 -0.51202338 20.63036985 -3.5 20.3125 C-6.05948999 17.75301001 -5.76068731 16.04042805 -5.7734375 12.546875 C-5.76570313 11.80953125 -5.75796875 11.0721875 -5.75 10.3125 C-5.75773437 9.57515625 -5.76546875 8.8378125 -5.7734375 8.078125 C-5.74582763 0.51302032 -5.74582763 0.51302032 0 0 Z " fill="#23EA60" transform="translate(333.5,139.6875)"/>
<path d="M0 0 C1.7325 0.1546875 1.7325 0.1546875 3.5 0.3125 C5.94508878 3.98013317 5.79885724 5.94681775 5.8125 10.3125 C5.82925781 11.55 5.84601563 12.7875 5.86328125 14.0625 C5.5 17.3125 5.5 17.3125 4.171875 19.23046875 C1.59174943 20.90031637 -0.51202338 20.63036985 -3.5 20.3125 C-6.05948999 17.75301001 -5.76068731 16.04042805 -5.7734375 12.546875 C-5.76570312 11.80953125 -5.75796875 11.0721875 -5.75 10.3125 C-5.75773438 9.57515625 -5.76546875 8.8378125 -5.7734375 8.078125 C-5.74582763 0.51302032 -5.74582763 0.51302032 0 0 Z " fill="#23EA5F" transform="translate(163.5,139.6875)"/>
<path d="M0 0 C1.2375 0.00386719 2.475 0.00773437 3.75 0.01171875 C7 0.3125 7 0.3125 10 2.3125 C10.3125 5.8125 10.3125 5.8125 10 9.3125 C7.51680598 11.79569402 6.03333953 11.57261201 2.63867188 11.5859375 C1.95353516 11.57820313 1.26839844 11.57046875 0.5625 11.5625 C-0.11876953 11.57023437 -0.80003906 11.57796875 -1.50195312 11.5859375 C-5.21409442 11.57139434 -6.83589372 11.42190418 -10 9.3125 C-10.38534097 6.29399577 -10.60824551 4.24893553 -8.9140625 1.640625 C-6.00102285 -0.38066782 -3.49673334 -0.0473516 0 0 Z " fill="#23EA5F" transform="translate(314,335.6875)"/>
<path d="M0 0 C1.2375 0.00386719 2.475 0.00773437 3.75 0.01171875 C7 0.3125 7 0.3125 10 2.3125 C10.3125 5.8125 10.3125 5.8125 10 9.3125 C7.51680598 11.79569402 6.03333953 11.57261201 2.63867188 11.5859375 C1.95353516 11.57820313 1.26839844 11.57046875 0.5625 11.5625 C-0.11876953 11.57023437 -0.80003906 11.57796875 -1.50195312 11.5859375 C-5.21409442 11.57139434 -6.83589372 11.42190418 -10 9.3125 C-10.38534097 6.29399577 -10.60824551 4.24893553 -8.9140625 1.640625 C-6.00102285 -0.38066782 -3.49673334 -0.0473516 0 0 Z " fill="#24EA60" transform="translate(144,335.6875)"/>
</svg>
